PathFileType	4	(X/Y/Z)	Patient4_TMGait_0pt3_01_left_06.trc.trc
DataRate	CameraRate	NumFrames	NumMarkers	Units	OrigDataRate	OrigDataStartFrame	OrigNumFrames
51.282051282051	51.282051282051	4	33	mm	51.282051282051	36	       141
Frame#	Time	Sacral			L.Shoulder			Chest			R.Shoulder			Neck			R.ASIS			L.ASIS			R.Thigh.Superior			R.Thigh.Lateral			R.Thigh.Inferior			R.Patella			L.Thigh.Superior			L.Thigh.Lateral			L.Thigh.Inferior			L.Patella			L.Shank.Superior			L.Shank.Lateral			L.Shank.Inferior			R.Shank.Superior			R.Shank.Lateral			R.Shank.Inferior			R.Heel			R.Midfoot.Superior			R.Midfoot.Lateral			R.Toe			L.Heel			L.Midfoot.Lateral			L.Midfoot.Superior			L.Toe			L.Elbow			L.Wrist			R.Elbow			R.Wrist			
		X1	Y1	Z1	X2	Y2	Z2	X3	Y3	Z3	X4	Y4	Z4	X5	Y5	Z5	X6	Y6	Z6	X7	Y7	Z7	X8	Y8	Z8	X9	Y9	Z9	X10	Y10	Z10	X11	Y11	Z11	X12	Y12	Z12	X13	Y13	Z13	X14	Y14	Z14	X15	Y15	Z15	X16	Y16	Z16	X17	Y17	Z17	X18	Y18	Z18	X19	Y19	Z19	X20	Y20	Z20	X21	Y21	Z21	X22	Y22	Z22	X23	Y23	Z23	X24	Y24	Z24	X25	Y25	Z25	X26	Y26	Z26	X27	Y27	Z27	X28	Y28	Z28	X29	Y29	Z29	X30	Y30	Z30	X31	Y31	Z31	X32	Y32	Z32	X33	Y33	Z33	

36	11.232500000000	836.802455688809	1000.625753708445	570.754310998795	977.238770034049	1413.960782309999	345.976798736520	1113.907316404631	1348.885259894001	481.713632724331	1074.356119249275	1434.023933170515	664.584561484037	1000.619420489443	1482.625699363258	498.846740760349	1078.486002819619	924.189795980440	649.174705972532	1023.656151641286	951.775210090802	380.364909937955	1066.712341979437	710.755524326774	622.036290246072	965.455539071104	616.810620621947	689.874820238616	1019.354893167480	550.366643423171	605.921092838309	994.611305031683	459.857725573814	613.981881999463	1103.432945275762	762.714106887180	414.743905144543	1040.002707141274	635.333426907208	345.517150061894	1138.874144914324	571.031378782182	406.267886816598	1150.835379151521	499.182778824741	409.269674113617	1126.590242656994	424.758763869391	397.639310056624	1043.085855891064	309.357291454154	339.589714686970	1100.068058126907	196.152484134411	402.494707464121	938.468583624451	383.351381693820	624.614695213886	840.058465984207	306.643259645353	690.254544502020	849.499951507940	203.303966886094	629.559502736414	675.878784358097	66.580122829556	600.749689483518	849.173935005684	98.978391805880	641.072178291863	754.202790812453	49.609758579344	678.217431453939	961.088659266178	37.591494998063	678.732829386911	976.782066896848	38.431244024020	433.830074364378	1051.658681570684	36.536926160634	354.002412158763	1134.909419149740	97.108838550655	383.074241143377	1262.915652095764	45.913408874643	354.043219299609	833.178621410903	1085.088645347897	276.315362081207	863.751968797562	825.227559456295	272.404340925004	1256.306814228232	1149.147980649603	761.561965641386	1447.952643998049	1264.675856743822	647.731744577245	
37	11.252000000000	838.359233931777	1001.970665275598	566.214488867930	979.343695481245	1415.022360733147	341.741693555926	1115.767478307712	1349.941746759177	477.768179677880	1075.747205070839	1435.234683003617	660.488902614240	1002.096618802225	1483.654571498698	494.636505208059	1079.738952915485	925.059430806417	645.492646520550	1025.743302888106	952.742499156630	376.610604719850	1066.894337672729	711.472798161574	619.490117457530	964.922195536521	618.379752658152	687.644887831439	1018.850965039595	551.089540578197	604.397221587273	993.488871665889	460.641206760101	613.053995570089	1104.398161190757	762.677249751260	411.685055202986	1039.991999293741	635.339219732611	343.184843338043	1138.137673333380	570.480418021030	404.498429451807	1149.746754315896	498.550725550731	407.986297006019	1124.768891052006	424.191037903275	396.676616578268	1040.475413294701	309.355970245831	339.050192906035	1095.883310911881	195.809891670678	402.450519550289	936.478424624190	384.732165320482	623.931294241833	837.127312539502	309.447744930859	689.664815905605	846.086233937248	205.454089207136	629.693577195283	671.218856532983	70.888260647634	601.086611538627	844.817421461151	99.622313222017	641.220744007551	749.189263636782	52.027231152841	678.408697148462	955.511995976039	37.211529558524	678.696499651276	971.198423134492	38.591038300801	433.876853632012	1046.084609872644	36.767608766163	354.146163190613	1129.477759117168	97.081648335844	383.325846066941	1257.404823955011	45.343614676909	354.108114585290	838.418449861138	1084.774015590059	270.876780261331	881.031002610609	826.358996461932	266.643131629196	1257.240547336027	1149.450663684578	756.990626734559	1454.828320583878	1257.334211282923	644.520535259439	
38	11.271500000000	839.773178281457	1003.409556462838	561.621075880961	981.608945792664	1416.247641746438	337.625383900015	1117.635359050377	1351.082343479253	474.050578236744	1076.997551789518	1436.493844887575	656.601466029957	1003.607691121491	1484.788068994897	490.607319167248	1080.793411339479	926.042894130798	641.808209776744	1027.698683562102	953.773227502239	372.824992604489	1066.903837391097	712.369028885390	616.970495534097	964.214756260676	620.159471556804	685.448281623405	1018.191000468438	552.013671388439	602.953021926877	992.230411019642	461.658864015301	612.216916380111	1105.085924554247	762.616669452924	408.532793293120	1039.533661192450	635.325832422774	340.871161175605	1136.957094591583	569.907550524934	402.708163883601	1148.199057137387	497.921432818976	406.666224170092	1122.495302395957	423.679210658026	395.669668024351	1037.432149022273	309.350132982829	338.579094574467	1091.527417787956	195.540181531802	402.373035044950	934.403696861222	386.332007823710	623.346855069291	834.134656669384	312.429657025928	689.113524485351	842.735787578739	207.768556316368	629.919568552020	666.675506522166	75.374760797730	601.462375244594	840.600192928220	100.342261207027	641.512459933409	744.236600612317	54.526882771366	678.625200522983	949.906874710094	36.893755190731	678.647124035191	965.604862789572	38.808007873386	433.982579824640	1040.474715033504	37.006021742703	354.333632345856	1124.039940408386	97.063964732577	383.531832673754	1251.851872777608	44.706267661189	354.111965401022	844.223112179668	1084.598368581236	265.034113929381	898.781563177687	828.213003284241	260.546901778682	1257.706280584443	1149.548363115064	752.757800210762	1462.020906235409	1248.300695923252	642.499944507703	
39	11.291000000000	841.041328499052	1004.913024592278	556.971550686303	983.985610920175	1417.610163218967	333.644249181575	1119.481948570759	1352.275770629667	470.550496312199	1078.115180038962	1437.749298582992	652.928686037160	1005.140370130357	1485.997616608565	486.773326246272	1081.640492816737	927.112252516632	638.115956615615	1029.528082643144	954.822205921984	369.002162898336	1066.683864519779	713.407596324504	614.498499103786	963.243068210244	622.135333477731	683.290022299987	1017.280994173016	553.118528591126	601.592549761666	990.741446852843	462.891604494617	611.466554418808	1105.561097951676	762.566765219553	405.363343620121	1038.781851995055	635.308447200305	338.595434459871	1135.481388686492	569.340887375039	400.929013712028	1146.337298020451	497.303063874839	405.337527699071	1119.906978774244	423.211983167294	394.636899153595	1034.068622482550	309.351931629635	338.152953781805	1087.054773385189	195.333905234641	402.274571880490	932.171108805875	388.129533305442	622.859785833793	831.019076206417	315.537080832218	688.601004254734	839.393956632096	210.203502336194	630.233050288742	662.220989994802	79.937017500564	601.878248905047	836.489590615565	101.116995458930	641.949198244508	739.327631373137	57.044077351055	678.867283098695	944.273587270290	36.643441417517	678.589797505410	959.994179777213	39.085360773735	434.144815755056	1034.823926076109	37.256672873765	354.558958353744	1118.595282494159	97.049771883492	383.702762657581	1246.252391234847	44.014206635095	354.068068558411	850.534444352315	1084.547816898182	258.802515812573	916.756457575984	830.756970700867	254.131648468673	1257.667397151742	1149.355034879101	748.890142408546	1469.252834587230	1237.442715531693	641.820088873501	
